<svg width="158" height="10" viewBox="0 0 158 10" fill="none" xmlns="http://www.w3.org/2000/svg">
<path d="M5.65726 0.538706C6.18199 0.538706 6.64933 0.66169 7.05928 0.907657C7.46922 1.14543 7.78898 1.47748 8.01855 1.90383C8.24812 2.32197 8.36291 2.79341 8.36291 3.31814V3.47802C8.36291 4.00275 8.24812 4.47829 8.01855 4.90464C7.78898 5.33098 7.46922 5.66714 7.05928 5.9131C6.64933 6.15087 6.18199 6.26976 5.65726 6.26976H3.62803V9H0.910081V0.538706H5.65726ZM3.62803 4.28972H4.74718C5.03414 4.28972 5.24731 4.21593 5.3867 4.06834C5.53428 3.92076 5.60807 3.71989 5.60807 3.46572V3.36734C5.60807 3.10497 5.53428 2.9041 5.3867 2.76471C5.24731 2.61713 5.03414 2.54334 4.74718 2.54334H3.62803V4.28972ZM14.9755 0.391125C16.4349 0.391125 17.5623 0.764176 18.3576 1.51028C19.1529 2.25638 19.5505 3.34274 19.5505 4.76935C19.5505 6.19597 19.1529 7.28232 18.3576 8.02843C17.5623 8.77453 16.4349 9.14758 14.9755 9.14758C13.5161 9.14758 12.3887 8.77863 11.5934 8.04073C10.8063 7.29462 10.4128 6.20417 10.4128 4.76935C10.4128 3.33454 10.8063 2.24818 11.5934 1.51028C12.3887 0.764176 13.5161 0.391125 14.9755 0.391125ZM14.9755 2.42036C14.3934 2.42036 13.9506 2.59664 13.6473 2.94919C13.3439 3.30174 13.1922 3.77728 13.1922 4.3758V5.1629C13.1922 5.76142 13.3439 6.23696 13.6473 6.58951C13.9506 6.94207 14.3934 7.11835 14.9755 7.11835C15.5576 7.11835 16.0004 6.94207 16.3037 6.58951C16.6153 6.23696 16.7711 5.76142 16.7711 5.1629V4.3758C16.7711 3.77728 16.6153 3.30174 16.3037 2.94919C16.0004 2.59664 15.5576 2.42036 14.9755 2.42036ZM26.0319 0.391125C27.2863 0.391125 28.2784 0.706784 29.0081 1.3381C29.7378 1.96122 30.1026 2.8549 30.1026 4.01915H27.5077C27.5077 3.52722 27.3765 3.13777 27.1141 2.8508C26.8599 2.56384 26.4951 2.42036 26.0196 2.42036C25.4702 2.42036 25.0644 2.59254 24.802 2.93689C24.5478 3.28125 24.4208 3.76088 24.4208 4.3758V5.1629C24.4208 5.76962 24.5478 6.24926 24.802 6.60181C25.0644 6.94617 25.462 7.11835 25.995 7.11835C26.5197 7.11835 26.9173 6.98306 27.1879 6.7125C27.4585 6.44193 27.5937 6.06068 27.5937 5.56875H30.1026C30.1026 6.7248 29.746 7.61028 29.0327 8.2252C28.3276 8.84012 27.3273 9.14758 26.0319 9.14758C24.5888 9.14758 23.4943 8.77863 22.7482 8.04073C22.0103 7.30282 21.6413 6.21236 21.6413 4.76935C21.6413 3.32634 22.0103 2.23588 22.7482 1.49798C23.4943 0.760077 24.5888 0.391125 26.0319 0.391125ZM38.285 0.538706H41.6547L38.617 4.01915L41.7162 9H38.5064L36.7477 5.90081L35.2719 7.10605V9H32.5539V0.538706H35.2719V4.15443L38.285 0.538706ZM43.7825 0.538706H51.1V2.56794H46.5004V3.73629H50.4359V5.67943H46.5004V6.97077H51.1861V9H43.7825V0.538706ZM58.512 2.70322V9H55.7941V2.70322H53.0146V0.538706H61.2791V2.70322H58.512Z" fill="#474658"/>
<path d="M67.1661 0.538706C70.1259 0.538706 71.6059 1.94892 71.6059 4.76935C71.6059 7.58978 70.1259 9 67.1661 9H63.5012V0.538706H67.1661ZM66.2192 6.97077H67.1169C68.2566 6.97077 68.8264 6.35995 68.8264 5.1383V4.4004C68.8264 3.17876 68.2566 2.56794 67.1169 2.56794H66.2192V6.97077ZM74.1802 9V0.538706H76.8981V9H74.1802ZM83.8549 0.391125C85.1094 0.391125 86.1015 0.706784 86.8312 1.3381C87.5609 1.96122 87.9257 2.8549 87.9257 4.01915H85.3308C85.3308 3.52722 85.1996 3.13777 84.9372 2.8508C84.683 2.56384 84.3182 2.42036 83.8427 2.42036C83.2933 2.42036 82.8875 2.59254 82.6251 2.93689C82.3709 3.28125 82.2439 3.76088 82.2439 4.3758V5.1629C82.2439 5.76962 82.3709 6.24926 82.6251 6.60181C82.8875 6.94617 83.2851 7.11835 83.8181 7.11835C84.3428 7.11835 84.7404 6.98306 85.011 6.7125C85.2816 6.44193 85.4168 6.06068 85.4168 5.56875H87.9257C87.9257 6.7248 87.5691 7.61028 86.8558 8.2252C86.1506 8.84012 85.1504 9.14758 83.8549 9.14758C82.4119 9.14758 81.3174 8.77863 80.5713 8.04073C79.8334 7.30282 79.4644 6.21236 79.4644 4.76935C79.4644 3.32634 79.8334 2.23588 80.5713 1.49798C81.3174 0.760077 82.4119 0.391125 83.8549 0.391125ZM95.2472 2.70322V9H92.5293V2.70322H89.7498V0.538706H98.0143V2.70322H95.2472ZM100.359 9V0.538706H103.077V9H100.359ZM110.206 0.391125C111.666 0.391125 112.793 0.764176 113.588 1.51028C114.384 2.25638 114.781 3.34274 114.781 4.76935C114.781 6.19597 114.384 7.28232 113.588 8.02843C112.793 8.77453 111.666 9.14758 110.206 9.14758C108.747 9.14758 107.62 8.77863 106.824 8.04073C106.037 7.29462 105.644 6.20417 105.644 4.76935C105.644 3.33454 106.037 2.24818 106.824 1.51028C107.62 0.764176 108.747 0.391125 110.206 0.391125ZM110.206 2.42036C109.624 2.42036 109.182 2.59664 108.878 2.94919C108.575 3.30174 108.423 3.77728 108.423 4.3758V5.1629C108.423 5.76142 108.575 6.23696 108.878 6.58951C109.182 6.94207 109.624 7.11835 110.206 7.11835C110.788 7.11835 111.231 6.94207 111.535 6.58951C111.846 6.23696 112.002 5.76142 112.002 5.1629V4.3758C112.002 3.77728 111.846 3.30174 111.535 2.94919C111.231 2.59664 110.788 2.42036 110.206 2.42036ZM123.28 9L119.725 4.89234V9H117.229V0.538706H119.602L123.157 4.70786V0.538706H125.653V9H123.28ZM134.007 9L133.65 7.80706H130.686L130.33 9H127.55L130.637 0.538706H133.798L136.885 9H134.007ZM131.252 5.9131H133.084L132.199 2.9H132.15L131.252 5.9131ZM146.924 3.13367C146.924 3.6502 146.785 4.11754 146.506 4.53568C146.227 4.95383 145.821 5.26129 145.288 5.45806L147.17 9H144.12L142.62 5.9131H141.611V9H138.893V0.538706H144.071C144.678 0.538706 145.194 0.65759 145.62 0.895359C146.055 1.12493 146.379 1.44059 146.592 1.84234C146.813 2.23588 146.924 2.66633 146.924 3.13367ZM144.157 3.24435C144.157 3.02298 144.083 2.83851 143.936 2.69092C143.788 2.54334 143.608 2.46955 143.394 2.46955H141.611V4.03145H143.394C143.608 4.03145 143.788 3.95766 143.936 3.81008C144.083 3.6543 144.157 3.46572 144.157 3.24435ZM154.172 9H151.454V5.71633L148.097 0.538706H151.221L152.844 3.35504H152.893L154.517 0.538706H157.48L154.172 5.71633V9Z" fill="#34D178"/>
</svg>
