<svg width="202" height="172" viewBox="0 0 202 172" fill="none" xmlns="http://www.w3.org/2000/svg">
<path d="M142.073 10.9457H158.866" stroke="#B9D4DB" stroke-width="1.66154" stroke-miterlimit="10" stroke-linecap="round"/>
<path d="M142.073 15.7857H158.866" stroke="#B9D4DB" stroke-width="1.66154" stroke-miterlimit="10" stroke-linecap="round"/>
<path d="M142.073 20.6258H158.866" stroke="#B9D4DB" stroke-width="1.66154" stroke-miterlimit="10" stroke-linecap="round"/>
<path d="M153.707 145.66H170.5" stroke="#B9D4DB" stroke-width="1.66154" stroke-miterlimit="10" stroke-linecap="round"/>
<path d="M153.707 150.5H170.5" stroke="#B9D4DB" stroke-width="1.66154" stroke-miterlimit="10" stroke-linecap="round"/>
<path d="M153.707 155.34H170.5" stroke="#B9D4DB" stroke-width="1.66154" stroke-miterlimit="10" stroke-linecap="round"/>
<path d="M14.343 65.6036H31.1361" stroke="#B9D4DB" stroke-width="1.66154" stroke-miterlimit="10" stroke-linecap="round"/>
<path d="M14.343 70.4437H31.1361" stroke="#B9D4DB" stroke-width="1.66154" stroke-miterlimit="10" stroke-linecap="round"/>
<path d="M14.343 75.2838H31.1361" stroke="#B9D4DB" stroke-width="1.66154" stroke-miterlimit="10" stroke-linecap="round"/>
<path d="M198.645 129.662L133.579 136.208L68.5131 129.662C68.2399 129.634 67.9866 129.506 67.8024 129.303C67.6182 129.099 67.5163 128.834 67.5163 128.56L65.983 124.075L67.5163 50.6052L133.579 57.2514L199.642 50.6052L201.099 124.674L199.642 128.56C199.642 128.834 199.54 129.099 199.356 129.303C199.171 129.506 198.918 129.634 198.645 129.662V129.662Z" fill="#74F3B2"/>
<path d="M201.099 124.674L133.579 131.19L65.983 124.075L67.5163 46.8118C67.5163 46.657 67.5487 46.5039 67.6115 46.3624C67.6743 46.2209 67.7661 46.0941 67.8809 45.9903C67.9957 45.8864 68.1311 45.8078 68.2781 45.7595C68.4252 45.7111 68.5808 45.6942 68.7348 45.7096L133.579 52.2332L198.423 45.7097C198.577 45.6942 198.733 45.7111 198.88 45.7595C199.027 45.8078 199.162 45.8864 199.277 45.9903C199.392 46.0941 199.484 46.2209 199.547 46.3624C199.609 46.5039 199.642 46.657 199.642 46.8118L201.099 124.674Z" fill="#34D178"/>
<path d="M133.579 39.2068L190.337 32.8265L194.325 116.036L133.579 121.619V39.2068Z" fill="#54FE9D"/>
<path d="M133.579 39.2068L73.8964 38.1434L77.0865 118.961L133.579 121.619V39.2068Z" fill="#6AF5A6"/>
<path d="M80.8447 91.9968C81.0154 98.4931 83.2952 104.758 87.3398 109.844C91.3845 114.931 96.9743 118.563 103.265 120.193L128.129 121.363V42.6628C128.129 42.6628 109.342 43.9967 89.8625 38.4278L79.4393 38.2422L80.8447 91.9968ZM165.282 118.705C171.419 114.327 176.357 108.475 179.643 101.689C182.928 94.9035 184.454 87.4007 184.082 79.8707L181.805 33.7856L168.039 35.333C155.456 41.7037 140.069 45.6966 140.069 45.6966V121.023L165.282 118.705Z" fill="#34D178"/>
<path d="M133.579 39.2068C133.579 39.2068 165.348 30.9655 174.918 19.2683L177.592 73.3809C178.111 83.8705 174.942 94.2109 168.636 102.61C162.33 111.008 153.284 116.935 143.067 119.364L133.579 121.619V39.2068Z" fill="#5FFDA3"/>
<path d="M142.024 39.2068L133.579 121.619C133.579 121.619 144.333 120.807 145.176 120.553C154.62 111.891 159.996 97.3362 158.715 84.4064L153.567 32.467C150.15 33.8694 146.8 35.0832 143.847 36.0794C142.764 37.9624 142.024 39.2068 142.024 39.2068Z" fill="#1BD06D"/>
<path d="M133.579 39.2068C133.579 39.2068 142.751 23.7877 143.814 19.2683L150.269 84.4063C150.975 91.526 149.806 98.7064 146.878 105.234C143.95 111.762 139.365 117.411 133.579 121.619V121.619L133.579 39.2068ZM133.579 39.2068C133.579 39.2068 107.393 41.0677 84.7963 31.2314L86.2945 88.5408C86.4727 95.3572 88.9721 101.908 93.3793 107.111C97.7866 112.314 103.838 115.857 110.532 117.154L133.579 121.619V39.2068Z" fill="#3FF88F"/>
<path d="M133.579 39.2068C134.037 46.0745 134.277 52.9422 134.44 59.8099C134.542 63.2437 134.565 66.6775 134.625 70.1114L134.686 80.4129L134.628 90.7145C134.566 94.1483 134.546 97.5822 134.443 101.016C134.281 107.884 134.04 114.751 133.579 121.619C133.118 114.751 132.877 107.884 132.715 101.016C132.612 97.5822 132.592 94.1483 132.53 90.7145L132.472 80.4129L132.533 70.1114C132.593 66.6775 132.616 63.2437 132.718 59.8099C132.881 52.9422 133.121 46.0745 133.579 39.2068ZM94.8937 50.8126C97.687 51.0489 100.426 51.3851 103.164 51.7068L111.347 52.6866C114.07 53.0072 116.792 53.2749 119.524 53.5421C122.259 53.8025 124.993 53.9636 127.792 54.2022C125.065 54.8611 122.274 55.2236 119.469 55.2832C116.671 55.3443 113.872 55.2118 111.093 54.8867C108.319 54.5614 105.568 54.0698 102.854 53.4147C100.131 52.7755 97.4682 51.905 94.8937 50.8126ZM94.8937 62.6402C97.687 62.8765 100.426 63.2127 103.164 63.5344L111.347 64.5143C114.07 64.8349 116.792 65.1025 119.524 65.3698C122.259 65.6301 124.993 65.7912 127.792 66.0298C125.065 66.6888 122.274 67.0512 119.469 67.1109C116.671 67.1719 113.872 67.0394 111.093 66.7144C108.319 66.389 105.568 65.8975 102.854 65.2424C100.131 64.6031 97.4682 63.7326 94.8937 62.6402V62.6402ZM94.8937 74.4679C97.687 74.7042 100.426 75.0404 103.164 75.3621L111.347 76.3419C114.07 76.6625 116.792 76.9302 119.524 77.1974C122.259 77.4577 124.993 77.6189 127.792 77.8574C125.065 78.5164 122.274 78.8789 119.469 78.9385C116.671 78.9996 113.872 78.8671 111.093 78.542C108.319 78.2167 105.568 77.7251 102.854 77.07C100.131 76.4308 97.4682 75.5602 94.8937 74.4679V74.4679ZM94.8937 86.2956C97.687 86.5318 100.426 86.868 103.164 87.1897L111.347 88.1696C114.07 88.4902 116.792 88.7578 119.524 89.0251C122.259 89.2854 124.993 89.4465 127.792 89.6851C125.065 90.3441 122.274 90.7065 119.469 90.7662C116.671 90.8272 113.872 90.6947 111.093 90.3697C108.319 90.0443 105.568 89.5528 102.854 88.8977C100.131 88.2584 97.4682 87.3879 94.8937 86.2956V86.2956ZM94.8937 98.1232C97.687 98.3595 100.426 98.6957 103.164 99.0174L111.347 99.9972C114.07 100.318 116.792 100.585 119.524 100.853C122.259 101.113 124.993 101.274 127.792 101.513C125.065 102.172 122.274 102.534 119.469 102.594C116.671 102.655 113.872 102.522 111.093 102.197C108.319 101.872 105.568 101.38 102.854 100.725C100.131 100.086 97.4682 99.2155 94.8937 98.1232V98.1232Z" fill="#1BD06D"/>
<path d="M173.103 52.3953L160.2 54.5713C160.058 54.599 159.911 54.5983 159.768 54.5693C159.626 54.5403 159.49 54.4834 159.37 54.402C159.249 54.3207 159.146 54.2163 159.065 54.095C158.985 53.9737 158.93 53.8377 158.902 53.6949L158.474 44.3747C158.446 44.2319 158.447 44.085 158.476 43.9425C158.505 43.7999 158.562 43.6645 158.643 43.5439C158.725 43.4234 158.829 43.32 158.95 43.2398C159.072 43.1595 159.208 43.1039 159.35 43.0762L172.419 40.3904C172.562 40.3627 172.708 40.3634 172.851 40.3924C172.993 40.4215 173.129 40.4783 173.249 40.5597C173.37 40.641 173.473 40.7454 173.554 40.8667C173.634 40.988 173.689 41.124 173.717 41.2668L173.98 51.0968C174.035 51.3852 173.975 51.6841 173.81 51.9276C173.646 52.1711 173.392 52.3393 173.103 52.3953ZM165.778 75.3581L152.876 77.5341C152.733 77.5618 152.586 77.5612 152.443 77.5321C152.301 77.5031 152.165 77.4462 152.045 77.3649C151.924 77.2835 151.821 77.1792 151.741 77.0578C151.66 76.9365 151.605 76.8006 151.577 76.6578L151.149 67.3375C151.093 67.0491 151.154 66.7503 151.318 66.5068C151.483 66.2633 151.737 66.095 152.025 66.039L165.094 63.3532C165.237 63.3255 165.384 63.3262 165.526 63.3552C165.669 63.3843 165.804 63.4411 165.925 63.5225C166.045 63.6039 166.149 63.7082 166.229 63.8295C166.309 63.9508 166.365 64.0868 166.392 64.2296L166.655 74.0597C166.682 74.2025 166.682 74.3493 166.653 74.4919C166.624 74.6344 166.567 74.7698 166.485 74.8904C166.404 75.011 166.3 75.1143 166.178 75.1946C166.057 75.2748 165.921 75.3304 165.778 75.3581Z" fill="#34D178"/>
<path d="M170.828 98.3209L157.926 100.497C157.637 100.553 157.338 100.492 157.095 100.328C156.851 100.163 156.683 99.909 156.627 99.6206L156.199 90.3003C156.172 90.1575 156.172 90.0106 156.201 89.8681C156.23 89.7256 156.287 89.5901 156.369 89.4696C156.45 89.349 156.554 89.2456 156.676 89.1654C156.797 89.0851 156.933 89.0296 157.076 89.0018L170.144 86.316C170.287 86.2883 170.434 86.289 170.576 86.318C170.719 86.3471 170.854 86.4039 170.975 86.4853C171.095 86.5667 171.199 86.671 171.279 86.7923C171.359 86.9136 171.415 87.0496 171.442 87.1924L171.705 97.0225C171.732 97.1653 171.732 97.3121 171.703 97.4547C171.674 97.5972 171.617 97.7326 171.536 97.8532C171.454 97.9738 171.35 98.0771 171.228 98.1574C171.107 98.2376 170.971 98.2932 170.828 98.3209V98.3209Z" fill="#34D178"/>
<path d="M97.1496 166.539C101.114 166.539 104.327 163.325 104.327 159.361C104.327 155.397 101.114 152.183 97.1496 152.183C93.1854 152.183 89.9717 155.397 89.9717 159.361C89.9717 163.325 93.1854 166.539 97.1496 166.539Z" fill="#47FF9D"/>
<path d="M87.5791 145.936C89.6347 145.936 91.301 144.269 91.301 142.214C91.301 140.158 89.6347 138.492 87.5791 138.492C85.5236 138.492 83.8573 140.158 83.8573 142.214C83.8573 144.269 85.5236 145.936 87.5791 145.936Z" fill="#47FF9D"/>
<path d="M111.925 151.253C114.862 151.253 117.242 148.872 117.242 145.936C117.242 142.999 114.862 140.619 111.925 140.619C108.989 140.619 106.608 142.999 106.608 145.936C106.608 148.872 108.989 151.253 111.925 151.253Z" fill="#47FF9D"/>
<path d="M20.7681 126.58C25.4848 126.58 29.3084 122.757 29.3084 118.04C29.3084 113.323 25.4848 109.5 20.7681 109.5C16.0514 109.5 12.2278 113.323 12.2278 118.04C12.2278 122.757 16.0514 126.58 20.7681 126.58Z" fill="#47FF9D"/>
<path d="M4.44849 116.406C6.90533 116.406 8.89699 114.414 8.89699 111.957C8.89699 109.5 6.90533 107.509 4.44849 107.509C1.99166 107.509 0 109.5 0 111.957C0 114.414 1.99166 116.406 4.44849 116.406Z" fill="#47FF9D"/>
<path d="M8.53478 99.4015C9.95192 99.4015 11.1007 98.2527 11.1007 96.8356C11.1007 95.4184 9.95192 94.2696 8.53478 94.2696C7.11763 94.2696 5.96881 95.4184 5.96881 96.8356C5.96881 98.2527 7.11763 99.4015 8.53478 99.4015Z" fill="#47FF9D"/>
<path d="M22.7393 104.803C26.1367 104.803 28.8908 102.048 28.8908 98.6511C28.8908 95.2537 26.1367 92.4995 22.7393 92.4995C19.3419 92.4995 16.5877 95.2537 16.5877 98.6511C16.5877 102.048 19.3419 104.803 22.7393 104.803Z" fill="#47FF9D"/>
<path d="M74.5222 30.4012C79.2389 30.4012 83.0626 26.5775 83.0626 21.8609C83.0626 17.1442 79.2389 13.3206 74.5222 13.3206C69.8056 13.3206 65.9819 17.1442 65.9819 21.8609C65.9819 26.5775 69.8056 30.4012 74.5222 30.4012Z" fill="#47FF9D"/>
<path d="M74.8689 8.89698C77.3257 8.89698 79.3174 6.90533 79.3174 4.44849C79.3174 1.99166 77.3257 0 74.8689 0C72.4121 0 70.4204 1.99166 70.4204 4.44849C70.4204 6.90533 72.4121 8.89698 74.8689 8.89698Z" fill="#47FF9D"/>
<path d="M104.499 10.898C106.625 10.898 108.349 9.17418 108.349 7.04769C108.349 4.92121 106.625 3.19736 104.499 3.19736C102.372 3.19736 100.648 4.92121 100.648 7.04769C100.648 9.17418 102.372 10.898 104.499 10.898Z" fill="#47FF9D"/>
<path d="M90.4913 5.87242C91.9084 5.87242 93.0572 4.7236 93.0572 3.30645C93.0572 1.8893 91.9084 0.740479 90.4913 0.740479C89.0741 0.740479 87.9253 1.8893 87.9253 3.30645C87.9253 4.7236 89.0741 5.87242 90.4913 5.87242Z" fill="#47FF9D"/>
<path d="M93.4732 23.4642C96.8706 23.4642 99.6247 20.7101 99.6247 17.3127C99.6247 13.9153 96.8706 11.1611 93.4732 11.1611C90.0757 11.1611 87.3216 13.9153 87.3216 17.3127C87.3216 20.7101 90.0757 23.4642 93.4732 23.4642Z" fill="#47FF9D"/>
<path d="M98.241 112.622C103.735 108.479 107.877 102.8 110.143 96.3033C112.41 89.8064 112.699 82.7834 110.974 76.1222C109.25 69.461 105.588 63.4608 100.453 58.8804C95.3187 54.3 88.9409 51.345 82.1268 50.3891C75.3126 49.4332 68.368 50.5193 62.1712 53.5102C55.9743 56.501 50.8034 61.2622 47.3124 67.1918C43.8214 73.1213 42.167 79.9528 42.5584 86.8226C42.9499 93.6923 45.3696 100.292 49.5116 105.786C52.262 109.435 55.7043 112.507 59.6419 114.825C63.5794 117.143 67.9352 118.663 72.4603 119.298C76.9854 119.933 81.5912 119.67 86.0147 118.525C90.4382 117.379 94.5927 115.373 98.241 112.622ZM54.9277 101.708C51.5913 97.2843 49.6416 91.9705 49.3253 86.4387C49.0089 80.9068 50.3402 75.4055 53.1506 70.6303C55.961 65.855 60.1244 62.0205 65.1141 59.6116C70.1039 57.2026 75.696 56.3275 81.1832 57.0968C86.6704 57.8662 91.8062 60.2455 95.9411 63.9338C100.076 67.6221 103.024 72.4538 104.413 77.8177C105.802 83.1817 105.569 88.8371 103.743 94.0686C101.918 99.3001 98.5821 103.873 94.1577 107.208C88.2255 111.68 80.7604 113.612 73.4039 112.58C66.0473 111.549 59.4015 107.638 54.9277 101.708V101.708Z" fill="#02C055"/>
<path d="M97.2942 86.0717C97.0275 90.4113 95.3565 94.5464 92.5335 97.853C89.7105 101.16 85.8885 103.458 81.6445 104.402C77.4004 105.346 72.9645 104.884 69.006 103.086C65.0475 101.288 61.7813 98.2509 59.7003 94.4335" stroke="#DBECEA" stroke-width="5.53846" stroke-miterlimit="10"/>
<path d="M62.5094 125.101L48.5 117.111C47.9686 116.808 47.2921 116.993 46.989 117.524L26.4982 153.45C26.1951 153.981 26.3802 154.658 26.9116 154.961L40.921 162.951C41.4524 163.254 42.1289 163.069 42.432 162.538L62.9228 126.612C63.2259 126.081 63.0408 125.404 62.5094 125.101Z" fill="#02C055"/>
<path d="M26.8407 151.516L43.9213 161.259C44.1765 161.404 44.3634 161.645 44.441 161.928C44.5185 162.212 44.4803 162.514 44.3347 162.77L42.7043 165.628C41.7455 167.309 40.1581 168.54 38.2915 169.051C36.4249 169.562 34.4318 169.31 32.7508 168.351L26.4225 164.742C25.5901 164.267 24.8594 163.633 24.2721 162.876C23.6847 162.119 23.2523 161.253 22.9994 160.329C22.7466 159.405 22.6782 158.44 22.7983 157.489C22.9184 156.538 23.2245 155.621 23.6993 154.788L25.3297 151.93C25.4753 151.675 25.7162 151.488 25.9996 151.41C26.283 151.333 26.5855 151.371 26.8407 151.516L26.8407 151.516Z" fill="#E5FFF0"/>
<path d="M27.0115 156.702L28.6419 153.844C28.7875 153.589 29.0284 153.402 29.3118 153.324C29.5952 153.247 29.8978 153.285 30.1529 153.43L44.0966 161.383C44.0423 161.336 43.9836 161.294 43.9212 161.258L26.8406 151.516C26.5854 151.371 26.2829 151.333 25.9995 151.41C25.7161 151.488 25.4752 151.674 25.3296 151.93L23.6991 154.788C22.7404 156.469 22.4886 158.462 22.9993 160.329C23.51 162.196 24.7413 163.783 26.4224 164.742L29.3738 166.425C27.8141 165.412 26.7008 163.84 26.2616 162.033C25.8225 160.225 26.0908 158.319 27.0115 156.702V156.702Z" fill="#E4FCF9"/>
</svg>
