<svg width="41" height="41" viewBox="0 0 41 41" fill="none" xmlns="http://www.w3.org/2000/svg">
<circle cx="20.5" cy="20.5" r="20.5" fill="#0DDC85" fill-opacity="0.12"/>
<path d="M25.2366 12.1813V29.4022C25.2366 30.6002 23.8208 31.2359 22.925 30.4402L17.933 26.0016C17.7806 25.8658 17.5837 25.7907 17.3796 25.7904H13.2899C12.627 25.7904 11.9911 25.5271 11.5222 25.0585C11.0534 24.5898 10.7898 23.9541 10.7895 23.2911V18.2935C10.7895 17.6303 11.0529 16.9943 11.5219 16.5254C11.9908 16.0565 12.6268 15.7931 13.2899 15.7931H17.3796C17.5837 15.7928 17.7806 15.7177 17.933 15.5819L22.9239 11.1444C23.8208 10.3465 25.2366 10.9811 25.2366 12.1813ZM29.6729 14.0116C29.7609 13.9465 29.8609 13.8994 29.9671 13.8729C30.0733 13.8465 30.1837 13.8412 30.292 13.8574C30.4002 13.8736 30.5042 13.911 30.598 13.9674C30.6918 14.0238 30.7736 14.0981 30.8387 14.1861C32.2558 16.0974 33.0192 18.4146 33.0158 20.794C33.0188 23.1735 32.255 25.4906 30.8376 27.4018C30.7033 27.5716 30.5083 27.6824 30.2937 27.7109C30.0792 27.7395 29.862 27.6834 29.688 27.5546C29.5141 27.4259 29.397 27.2345 29.3616 27.021C29.3263 26.8074 29.3753 26.5885 29.4985 26.4105C30.7034 24.7861 31.3523 22.8165 31.3488 20.794C31.3523 18.7715 30.7034 16.8018 29.4985 15.1774C29.4334 15.0894 29.3862 14.9894 29.3598 14.8832C29.3333 14.777 29.328 14.6666 29.3442 14.5584C29.3604 14.4501 29.3978 14.3461 29.4542 14.2523C29.5106 14.1585 29.5849 14.0767 29.6729 14.0116ZM27.6181 16.7599C27.7144 16.7077 27.8201 16.6751 27.929 16.6638C28.0379 16.6525 28.148 16.6628 28.253 16.694C28.358 16.7253 28.4557 16.777 28.5407 16.846C28.6257 16.9151 28.6963 17.0003 28.7483 17.0966C29.344 18.1968 29.6818 19.4582 29.6818 20.7951C29.6837 22.0864 29.3628 23.3577 28.7483 24.4935C28.6962 24.5899 28.6257 24.675 28.5407 24.744C28.4557 24.8131 28.3579 24.8647 28.253 24.896C28.148 24.9272 28.0379 24.9375 27.929 24.9263C27.8201 24.915 27.7144 24.8824 27.6181 24.8303C27.5218 24.7782 27.4367 24.7076 27.3676 24.6226C27.2986 24.5376 27.2469 24.4398 27.2157 24.3349C27.1844 24.2299 27.1741 24.1199 27.1854 24.0109C27.1967 23.902 27.2293 23.7964 27.2814 23.7001C27.7481 22.8366 28.0149 21.8486 28.0149 20.7951C28.0149 19.7416 27.7481 18.7536 27.2814 17.8901C27.2292 17.7938 27.1966 17.6882 27.1853 17.5792C27.174 17.4703 27.1842 17.3602 27.2155 17.2552C27.2468 17.1502 27.2984 17.0525 27.3675 16.9675C27.4366 16.8825 27.5218 16.812 27.6181 16.7599Z" fill="#0DDB84"/>
</svg>
