<svg width="287" height="65" viewBox="0 0 287 65" fill="none" xmlns="http://www.w3.org/2000/svg">
<path d="M65.5352 1.25897C67.1315 1.25897 68.5533 1.63311 69.8004 2.3814C71.0476 3.10474 72.0203 4.11493 72.7187 5.41196C73.4171 6.68404 73.7663 8.11826 73.7663 9.7146V10.201C73.7663 11.7973 73.4171 13.244 72.7187 14.541C72.0203 15.8381 71.0476 16.8607 69.8004 17.609C68.5533 18.3324 67.1315 18.694 65.5352 18.694H59.3618V27H51.0933V1.25897H65.5352ZM59.3618 12.6703H62.7665C63.6395 12.6703 64.288 12.4458 64.7121 11.9969C65.161 11.5479 65.3855 10.9368 65.3855 10.1636V9.86426C65.3855 9.06608 65.161 8.45498 64.7121 8.03096C64.288 7.58198 63.6395 7.3575 62.7665 7.3575H59.3618V12.6703ZM93.8832 0.809997C98.3231 0.809997 101.753 1.9449 104.172 4.2147C106.592 6.4845 107.801 9.78943 107.801 14.1295C107.801 18.4695 106.592 21.7745 104.172 24.0443C101.753 26.3141 98.3231 27.449 93.8832 27.449C89.4434 27.449 86.0138 26.3265 83.5943 24.0817C81.1998 21.8119 80.0025 18.4945 80.0025 14.1295C80.0025 9.76448 81.1998 6.45955 83.5943 4.2147C86.0138 1.9449 89.4434 0.809997 93.8832 0.809997ZM93.8832 6.98336C92.1123 6.98336 90.7654 7.51963 89.8425 8.59217C88.9196 9.66471 88.4582 11.1114 88.4582 12.9322V15.3267C88.4582 17.1476 88.9196 18.5943 89.8425 19.6668C90.7654 20.7393 92.1123 21.2756 93.8832 21.2756C95.6542 21.2756 97.0011 20.7393 97.924 19.6668C98.8718 18.5943 99.3457 17.1476 99.3457 15.3267V12.9322C99.3457 11.1114 98.8718 9.66471 97.924 8.59217C97.0011 7.51963 95.6542 6.98336 93.8832 6.98336ZM127.519 0.809997C131.335 0.809997 134.353 1.7703 136.573 3.6909C138.793 5.58655 139.903 8.30533 139.903 11.8472H132.009C132.009 10.3506 131.61 9.16586 130.811 8.29286C130.038 7.41986 128.928 6.98336 127.482 6.98336C125.81 6.98336 124.576 7.50716 123.778 8.55476C123.004 9.60236 122.618 11.0615 122.618 12.9322V15.3267C122.618 17.1725 123.004 18.6317 123.778 19.7042C124.576 20.7518 125.785 21.2756 127.407 21.2756C129.003 21.2756 130.213 20.8641 131.036 20.0409C131.859 19.2178 132.271 18.058 132.271 16.5614H139.903C139.903 20.0784 138.818 22.7722 136.648 24.6429C134.503 26.5136 131.46 27.449 127.519 27.449C123.129 27.449 119.799 26.3265 117.529 24.0817C115.284 21.8368 114.162 18.5194 114.162 14.1295C114.162 9.73954 115.284 6.42214 117.529 4.17728C119.799 1.93243 123.129 0.809997 127.519 0.809997ZM164.796 1.25897H175.047L165.806 11.8472L175.234 27H165.469L160.119 17.5716L155.629 21.2382V27H147.361V1.25897H155.629V12.2588L164.796 1.25897ZM181.52 1.25897H203.782V7.43233H189.789V10.9867H201.761V16.8981H189.789V20.8266H204.043V27H181.52V1.25897ZM226.33 7.84388V27H218.062V7.84388H209.606V1.25897H234.749V7.84388H226.33Z" fill="#474658"/>
<path d="M11.4616 38.259C20.466 38.259 24.9682 42.5491 24.9682 51.1295C24.9682 59.7098 20.466 64 11.4616 64H0.312145V38.259H11.4616ZM8.5807 57.8266H11.3119C14.779 57.8266 16.5125 55.9684 16.5125 52.2519V50.0071C16.5125 46.2906 14.779 44.4323 11.3119 44.4323H8.5807V57.8266ZM32.7997 64V38.259H41.0683V64H32.7997ZM62.2325 37.81C66.0488 37.81 69.0668 38.7703 71.2868 40.6909C73.5067 42.5866 74.6166 45.3053 74.6166 48.8472H66.7222C66.7222 47.3506 66.3231 46.1659 65.525 45.2929C64.7517 44.4199 63.6418 43.9834 62.1951 43.9834C60.5239 43.9834 59.2892 44.5072 58.4911 45.5548C57.7178 46.6024 57.3312 48.0615 57.3312 49.9322V52.3267C57.3312 54.1725 57.7178 55.6317 58.4911 56.7042C59.2892 57.7518 60.499 58.2756 62.1203 58.2756C63.7166 58.2756 64.9263 57.8641 65.7494 57.0409C66.5726 56.2178 66.9841 55.058 66.9841 53.5614H74.6166C74.6166 57.0784 73.5316 59.7722 71.3616 61.6429C69.2165 63.5136 66.1735 64.449 62.2325 64.449C57.8426 64.449 54.5127 63.3265 52.2429 61.0817C49.998 58.8368 48.8756 55.5194 48.8756 51.1295C48.8756 46.7395 49.998 43.4221 52.2429 41.1773C54.5127 38.9324 57.8426 37.81 62.2325 37.81ZM96.8901 44.8439V64H88.6215V44.8439H80.1659V38.259H105.308V44.8439H96.8901ZM112.442 64V38.259H120.711V64H112.442ZM142.399 37.81C146.839 37.81 150.269 38.9449 152.688 41.2147C155.107 43.4845 156.317 46.7894 156.317 51.1295C156.317 55.4695 155.107 58.7745 152.688 61.0443C150.269 63.3141 146.839 64.449 142.399 64.449C137.959 64.449 134.53 63.3265 132.11 61.0817C129.716 58.8119 128.518 55.4945 128.518 51.1295C128.518 46.7645 129.716 43.4596 132.11 41.2147C134.53 38.9449 137.959 37.81 142.399 37.81ZM142.399 43.9834C140.628 43.9834 139.281 44.5196 138.358 45.5922C137.435 46.6647 136.974 48.1114 136.974 49.9322V52.3267C136.974 54.1476 137.435 55.5943 138.358 56.6668C139.281 57.7393 140.628 58.2756 142.399 58.2756C144.17 58.2756 145.517 57.7393 146.44 56.6668C147.388 55.5943 147.862 54.1476 147.862 52.3267V49.9322C147.862 48.1114 147.388 46.6647 146.44 45.5922C145.517 44.5196 144.17 43.9834 142.399 43.9834ZM182.171 64L171.358 51.5036V64H163.763V38.259H170.984L181.797 50.9424V38.259H189.392V64H182.171ZM214.805 64L213.72 60.3708H204.703L203.618 64H195.163L204.554 38.259H214.169L223.56 64H214.805ZM206.424 54.609H211.999L209.305 45.4425H209.155L206.424 54.609ZM254.102 46.1534C254.102 47.7248 253.678 49.1465 252.83 50.4186C251.982 51.6907 250.747 52.6261 249.126 53.2247L254.85 64H245.572L241.007 54.609H237.939V64H229.671V38.259H245.422C247.268 38.259 248.839 38.6206 250.136 39.344C251.458 40.0424 252.443 41.0027 253.092 42.2249C253.765 43.4221 254.102 44.7316 254.102 46.1534ZM245.684 46.4901C245.684 45.8167 245.459 45.2554 245.01 44.8065C244.561 44.3575 244.013 44.133 243.364 44.133H237.939V48.8846H243.364C244.013 48.8846 244.561 48.6601 245.01 48.2112C245.459 47.7373 245.684 47.1636 245.684 46.4901ZM276.152 64H267.884V54.0104L257.67 38.259H267.173L272.111 46.8268H272.261L277.2 38.259H286.217L276.152 54.0104V64Z" fill="#04BE24"/>
</svg>
